<mxfile host="app.diagrams.net" modified="2022-07-02T21:40:30.186Z" agent="5.0 (Windows NT 10.0; Win64; x64) AppleWebKit/537.36 (KHTML, like Gecko) Chrome/102.0.5005.115 Safari/537.36 OPR/88.0.4412.65" etag="b9KiaSQSuRI5JgW1hjop" version="20.0.4" type="github">
  <diagram id="s3rP9vaL6DojUl77rk7g" name="Page-1">
    <mxGraphModel dx="868" dy="483" grid="1" gridSize="10" guides="1" tooltips="1" connect="1" arrows="1" fold="1" page="1" pageScale="1" pageWidth="827" pageHeight="1169" math="0" shadow="0">
      <root>
        <mxCell id="0" />
        <mxCell id="1" parent="0" />
        <mxCell id="9xiEHaMWu-fQ84VGuqVn-1" value="&lt;font style=&quot;font-size: 28px;&quot;&gt;Ominous&lt;/font&gt;" style="rounded=1;whiteSpace=wrap;html=1;fontFamily=Helvetica;" vertex="1" parent="1">
          <mxGeometry x="250" y="10" width="300" height="60" as="geometry" />
        </mxCell>
        <mxCell id="9xiEHaMWu-fQ84VGuqVn-2" value="App.js" style="rounded=1;whiteSpace=wrap;html=1;fontFamily=Helvetica;fontSize=15;" vertex="1" parent="1">
          <mxGeometry x="340" y="110" width="120" height="60" as="geometry" />
        </mxCell>
        <mxCell id="9xiEHaMWu-fQ84VGuqVn-3" value="" style="endArrow=classic;html=1;rounded=0;fontFamily=Helvetica;entryX=0.5;entryY=0;entryDx=0;entryDy=0;" edge="1" parent="1" target="9xiEHaMWu-fQ84VGuqVn-2">
          <mxGeometry width="50" height="50" relative="1" as="geometry">
            <mxPoint x="400" y="70" as="sourcePoint" />
            <mxPoint x="440" y="60" as="targetPoint" />
            <Array as="points" />
          </mxGeometry>
        </mxCell>
        <mxCell id="9xiEHaMWu-fQ84VGuqVn-5" value="" style="endArrow=classic;html=1;rounded=0;fontFamily=Helvetica;exitX=0.5;exitY=1;exitDx=0;exitDy=0;" edge="1" parent="1" source="9xiEHaMWu-fQ84VGuqVn-2">
          <mxGeometry width="50" height="50" relative="1" as="geometry">
            <mxPoint x="420" y="90" as="sourcePoint" />
            <mxPoint x="400" y="240" as="targetPoint" />
            <Array as="points" />
          </mxGeometry>
        </mxCell>
        <mxCell id="9xiEHaMWu-fQ84VGuqVn-6" value="Home" style="rounded=1;whiteSpace=wrap;html=1;fontFamily=Helvetica;fontSize=15;" vertex="1" parent="1">
          <mxGeometry x="350" y="240" width="110" height="40" as="geometry" />
        </mxCell>
        <mxCell id="9xiEHaMWu-fQ84VGuqVn-7" value="" style="endArrow=classic;html=1;rounded=0;fontFamily=Helvetica;fontSize=15;entryX=0.5;entryY=0;entryDx=0;entryDy=0;" edge="1" parent="1" target="9xiEHaMWu-fQ84VGuqVn-9">
          <mxGeometry width="50" height="50" relative="1" as="geometry">
            <mxPoint x="410" y="200" as="sourcePoint" />
            <mxPoint x="190" y="230" as="targetPoint" />
            <Array as="points">
              <mxPoint x="230" y="200" />
            </Array>
          </mxGeometry>
        </mxCell>
        <mxCell id="9xiEHaMWu-fQ84VGuqVn-8" value="" style="endArrow=classic;html=1;rounded=0;fontFamily=Helvetica;fontSize=15;entryX=0.5;entryY=0;entryDx=0;entryDy=0;" edge="1" parent="1" target="9xiEHaMWu-fQ84VGuqVn-20">
          <mxGeometry width="50" height="50" relative="1" as="geometry">
            <mxPoint x="403" y="200" as="sourcePoint" />
            <mxPoint x="563" y="230" as="targetPoint" />
            <Array as="points">
              <mxPoint x="600" y="200" />
            </Array>
          </mxGeometry>
        </mxCell>
        <mxCell id="9xiEHaMWu-fQ84VGuqVn-9" value="Login" style="rounded=1;whiteSpace=wrap;html=1;fontFamily=Helvetica;fontSize=15;" vertex="1" parent="1">
          <mxGeometry x="130" y="240" width="110" height="40" as="geometry" />
        </mxCell>
        <mxCell id="9xiEHaMWu-fQ84VGuqVn-10" value="" style="endArrow=classic;html=1;rounded=0;fontFamily=Helvetica;exitX=0.5;exitY=1;exitDx=0;exitDy=0;entryX=0.5;entryY=0;entryDx=0;entryDy=0;" edge="1" parent="1" source="9xiEHaMWu-fQ84VGuqVn-9" target="9xiEHaMWu-fQ84VGuqVn-11">
          <mxGeometry width="50" height="50" relative="1" as="geometry">
            <mxPoint x="410" y="80" as="sourcePoint" />
            <mxPoint x="225" y="320" as="targetPoint" />
            <Array as="points" />
          </mxGeometry>
        </mxCell>
        <mxCell id="9xiEHaMWu-fQ84VGuqVn-11" value="Sign Up" style="rounded=1;whiteSpace=wrap;html=1;fontFamily=Helvetica;fontSize=15;" vertex="1" parent="1">
          <mxGeometry x="130" y="320" width="110" height="40" as="geometry" />
        </mxCell>
        <mxCell id="9xiEHaMWu-fQ84VGuqVn-12" value="Header" style="rounded=1;whiteSpace=wrap;html=1;fontFamily=Helvetica;fontSize=15;" vertex="1" parent="1">
          <mxGeometry x="290" y="310" width="66" height="20" as="geometry" />
        </mxCell>
        <mxCell id="9xiEHaMWu-fQ84VGuqVn-13" value="Banner" style="rounded=1;whiteSpace=wrap;html=1;fontFamily=Helvetica;fontSize=15;" vertex="1" parent="1">
          <mxGeometry x="372" y="310" width="66" height="20" as="geometry" />
        </mxCell>
        <mxCell id="9xiEHaMWu-fQ84VGuqVn-14" value="Row" style="rounded=1;whiteSpace=wrap;html=1;fontFamily=Helvetica;fontSize=15;" vertex="1" parent="1">
          <mxGeometry x="450" y="310" width="66" height="20" as="geometry" />
        </mxCell>
        <mxCell id="9xiEHaMWu-fQ84VGuqVn-15" value="" style="endArrow=classic;html=1;rounded=0;fontFamily=Helvetica;exitX=0.5;exitY=1;exitDx=0;exitDy=0;entryX=0.5;entryY=0;entryDx=0;entryDy=0;" edge="1" parent="1" source="9xiEHaMWu-fQ84VGuqVn-6" target="9xiEHaMWu-fQ84VGuqVn-13">
          <mxGeometry width="50" height="50" relative="1" as="geometry">
            <mxPoint x="235" y="290" as="sourcePoint" />
            <mxPoint x="235" y="330" as="targetPoint" />
            <Array as="points" />
          </mxGeometry>
        </mxCell>
        <mxCell id="9xiEHaMWu-fQ84VGuqVn-17" value="" style="endArrow=classic;html=1;rounded=0;fontFamily=Helvetica;exitX=0.5;exitY=1;exitDx=0;exitDy=0;entryX=0.5;entryY=0;entryDx=0;entryDy=0;" edge="1" parent="1" source="9xiEHaMWu-fQ84VGuqVn-6" target="9xiEHaMWu-fQ84VGuqVn-14">
          <mxGeometry width="50" height="50" relative="1" as="geometry">
            <mxPoint x="415" y="290" as="sourcePoint" />
            <mxPoint x="415" y="320" as="targetPoint" />
            <Array as="points">
              <mxPoint x="483" y="280" />
            </Array>
          </mxGeometry>
        </mxCell>
        <mxCell id="9xiEHaMWu-fQ84VGuqVn-18" value="" style="endArrow=classic;html=1;rounded=0;fontFamily=Helvetica;exitX=0;exitY=1;exitDx=0;exitDy=0;" edge="1" parent="1" source="9xiEHaMWu-fQ84VGuqVn-6">
          <mxGeometry width="50" height="50" relative="1" as="geometry">
            <mxPoint x="415" y="290" as="sourcePoint" />
            <mxPoint x="320" y="310" as="targetPoint" />
            <Array as="points">
              <mxPoint x="320" y="280" />
              <mxPoint x="320" y="300" />
            </Array>
          </mxGeometry>
        </mxCell>
        <mxCell id="9xiEHaMWu-fQ84VGuqVn-20" value="Profile" style="rounded=1;whiteSpace=wrap;html=1;fontFamily=Helvetica;fontSize=15;" vertex="1" parent="1">
          <mxGeometry x="580" y="240" width="110" height="40" as="geometry" />
        </mxCell>
        <mxCell id="9xiEHaMWu-fQ84VGuqVn-21" value="Header" style="rounded=1;whiteSpace=wrap;html=1;fontFamily=Helvetica;fontSize=15;" vertex="1" parent="1">
          <mxGeometry x="540" y="300" width="80" height="20" as="geometry" />
        </mxCell>
        <mxCell id="9xiEHaMWu-fQ84VGuqVn-22" value="Plans" style="rounded=1;whiteSpace=wrap;html=1;fontFamily=Helvetica;fontSize=15;" vertex="1" parent="1">
          <mxGeometry x="660" y="300" width="80" height="20" as="geometry" />
        </mxCell>
        <mxCell id="9xiEHaMWu-fQ84VGuqVn-24" value="" style="endArrow=classic;html=1;rounded=0;fontFamily=Helvetica;exitX=0;exitY=0.5;exitDx=0;exitDy=0;entryX=0.25;entryY=0;entryDx=0;entryDy=0;" edge="1" parent="1" source="9xiEHaMWu-fQ84VGuqVn-20" target="9xiEHaMWu-fQ84VGuqVn-21">
          <mxGeometry width="50" height="50" relative="1" as="geometry">
            <mxPoint x="360" y="290" as="sourcePoint" />
            <mxPoint x="330" y="320" as="targetPoint" />
            <Array as="points">
              <mxPoint x="560" y="260" />
              <mxPoint x="560" y="280" />
            </Array>
          </mxGeometry>
        </mxCell>
        <mxCell id="9xiEHaMWu-fQ84VGuqVn-25" value="" style="endArrow=classic;html=1;rounded=0;fontFamily=Helvetica;exitX=1;exitY=0.5;exitDx=0;exitDy=0;entryX=0.75;entryY=0;entryDx=0;entryDy=0;" edge="1" parent="1" source="9xiEHaMWu-fQ84VGuqVn-20" target="9xiEHaMWu-fQ84VGuqVn-22">
          <mxGeometry width="50" height="50" relative="1" as="geometry">
            <mxPoint x="590" y="270" as="sourcePoint" />
            <mxPoint x="570" y="310" as="targetPoint" />
            <Array as="points">
              <mxPoint x="720" y="260" />
              <mxPoint x="720" y="290" />
            </Array>
          </mxGeometry>
        </mxCell>
      </root>
    </mxGraphModel>
  </diagram>
</mxfile>
